<svg width="50" height="40" viewBox="0 0 50 40" fill="none" xmlns="http://www.w3.org/2000/svg">
<path fill-rule="evenodd" clip-rule="evenodd" d="M28.9062 38.8953L28.405 38.9511C28.2565 38.9511 27.9223 38.9696 27.4025 39.0068H25.8836H25.6202H24.3798H24.1164H22.5975C22.0777 38.9696 21.7435 38.9511 21.595 38.9511L21.0938 38.8953V36.8944C21.0767 36.7474 21.0767 36.6089 21.0938 36.479V31.4406C20.9291 30.9963 20.6928 30.5649 20.3848 30.1467C20.1248 29.8123 19.9763 29.7009 19.9392 29.8123C19.9021 29.9238 19.9949 30.2024 20.2177 30.6482C20.4033 31.0568 20.5518 31.4283 20.6632 31.7627C20.7375 32.097 20.7746 32.4871 20.7746 32.9329C20.7746 34.3074 20.3848 35.6076 19.605 36.8335C19.308 37.2422 19.0109 37.5765 18.7139 37.8366C18.4168 38.0966 18.027 38.3381 17.5443 38.561L16.7088 38.9511L0.445569 39.0625L0.334178 38.7282C0.259916 38.5424 0.222784 38.0409 0.222784 37.2236C0.222784 36.4063 0.259916 35.6819 0.334178 35.0504C0.519831 33.4901 0.835442 32.097 1.28101 30.8711C1.72658 29.6451 2.3578 28.605 3.17468 27.7505C3.95442 26.859 4.95695 26.1903 6.18226 25.7445C7.40758 25.2615 8.87424 25.0201 10.5822 25.0201C12.2903 25.0201 14.0168 25.2987 15.762 25.8559C17.5071 26.4132 19.0295 27.249 20.3291 28.3635C20.4776 28.4378 20.589 28.5121 20.6632 28.5864L20.8303 28.6421C20.8675 28.605 20.7561 28.3635 20.4961 27.9177C20.2362 27.4348 19.9763 27.0261 19.7164 26.6918C19.1223 25.8373 18.3983 25.1501 17.5443 24.63C16.6531 24.0728 15.6692 23.7941 14.5924 23.7941C13.8126 23.7941 12.9772 23.9242 12.086 24.1842C11.492 24.3699 11.0464 24.4814 10.7493 24.5185C10.4523 24.5185 10.1367 24.4814 9.80251 24.4071C9.46833 24.3328 9.18985 24.2213 8.96706 24.0728C8.70715 23.887 8.44723 23.6455 8.18732 23.3483C7.37044 22.4196 7.0177 21.2866 7.1291 19.9492C7.20336 19.0576 7.42614 18.2775 7.79745 17.6088C8.16875 16.9029 8.68858 16.3457 9.35694 15.9371C9.83964 15.6399 10.2666 15.4727 10.6379 15.4355C11.0093 15.3612 11.6405 15.3241 12.5316 15.3241C13.9426 15.3241 15.2422 15.6027 16.4303 16.16C17.6185 16.68 18.6582 17.5345 19.5493 18.7233C19.6236 18.8718 19.7535 19.0947 19.9392 19.3919C20.1248 19.652 20.2919 19.912 20.4405 20.1721C20.7209 20.7116 20.9386 21.0756 21.0938 21.2641V19.5034C21.1309 16.8286 21.1494 14.3396 21.1494 12.0364V10.1613C21.081 9.80113 20.9931 9.46027 20.886 9.13873C20.7004 8.65579 20.459 8.22857 20.162 7.85708C19.8278 7.48559 19.4008 7.24411 18.881 7.13267C18.4354 7.02122 17.9156 7.09552 17.3215 7.35557C16.6903 7.61561 15.8362 8.11712 14.7595 8.86011C14.1282 9.26875 13.5341 9.64025 12.9772 9.97459C12.4202 10.2718 11.8633 10.5318 11.3063 10.7547C10.7493 10.9776 10.1738 11.1448 9.57972 11.2562C8.9485 11.3677 8.26158 11.4234 7.51897 11.4234C6.44218 11.4234 5.49535 11.2377 4.67847 10.8662C3.82446 10.4947 3.10041 9.99316 2.50632 9.36162C1.91223 8.69294 1.42953 7.93138 1.05823 7.07695C0.686919 6.18536 0.389874 5.23805 0.16709 4.23502C0.12996 4.01213 0.0928285 3.71493 0.0556961 3.34344C0.0185659 2.9348 0 2.52615 0 2.11751C0 1.70887 0.0185659 1.33738 0.0556961 1.00303C0.0556961 0.631539 0.0742615 0.390068 0.111394 0.27862L0.222784 0H14.481C16.4489 0 18.3054 0.0185745 20.0506 0.0557233H24.562C24.7114 0.0557233 24.8574 0.055969 25 0.0564602C25.1426 0.055969 25.2886 0.0557233 25.438 0.0557233H29.9494C31.6946 0.0185745 33.5511 0 35.519 0H49.7772L49.8886 0.27862C49.9257 0.390068 49.9443 0.631539 49.9443 1.00303C49.9814 1.33738 50 1.70887 50 2.11751C50 2.52615 49.9814 2.9348 49.9443 3.34344C49.9072 3.71493 49.87 4.01213 49.8329 4.23502C49.6101 5.23805 49.3131 6.18536 48.9418 7.07695C48.5705 7.93138 48.0878 8.69294 47.4937 9.36162C46.8996 9.99316 46.1755 10.4947 45.3215 10.8662C44.5047 11.2377 43.5578 11.4234 42.481 11.4234C41.7384 11.4234 41.0515 11.3677 40.4203 11.2562C39.8262 11.1448 39.2507 10.9776 38.6937 10.7547C38.1367 10.5318 37.5798 10.2718 37.0228 9.97459C36.4659 9.64025 35.8718 9.26875 35.2405 8.86011C34.1638 8.11712 33.3097 7.61561 32.6785 7.35557C32.0844 7.09552 31.5646 7.02122 31.119 7.13267C30.5992 7.24411 30.1722 7.48559 29.838 7.85708C29.541 8.22857 29.2996 8.65579 29.114 9.13873C29.0069 9.46027 28.919 9.80113 28.8506 10.1613V12.0364C28.8506 14.3396 28.8691 16.8286 28.9062 19.5034V21.2641C29.0614 21.0756 29.2791 20.7116 29.5595 20.1721C29.7081 19.912 29.8752 19.652 30.0608 19.3919C30.2465 19.0947 30.3764 18.8718 30.4507 18.7233C31.3418 17.5345 32.3815 16.68 33.5697 16.16C34.7578 15.6027 36.0574 15.3241 37.4684 15.3241C38.3595 15.3241 38.9907 15.3612 39.3621 15.4355C39.7334 15.4727 40.1604 15.6399 40.6431 15.9371C41.3114 16.3457 41.8312 16.9029 42.2026 17.6088C42.5739 18.2775 42.7966 19.0576 42.8709 19.9492C42.9823 21.2866 42.6296 22.4196 41.8127 23.3483C41.5528 23.6455 41.2929 23.887 41.0329 24.0728C40.8102 24.2213 40.5317 24.3328 40.1975 24.4071C39.8633 24.4814 39.5477 24.5185 39.2507 24.5185C38.9536 24.4814 38.508 24.3699 37.914 24.1842C37.0228 23.9242 36.1874 23.7941 35.4076 23.7941C34.3308 23.7941 33.3469 24.0728 32.4557 24.63C31.6017 25.1501 30.8777 25.8373 30.2836 26.6918C30.0237 27.0261 29.7638 27.4348 29.5039 27.9177C29.2439 28.3635 29.1325 28.605 29.1697 28.6421L29.3368 28.5864C29.411 28.5121 29.5224 28.4378 29.6709 28.3635C30.9705 27.249 32.4929 26.4132 34.238 25.8559C35.9832 25.2987 37.7097 25.0201 39.4178 25.0201C41.1258 25.0201 42.5924 25.2615 43.8177 25.7445C45.0431 26.1903 46.0456 26.859 46.8253 27.7505C47.6422 28.605 48.2734 29.6451 48.719 30.8711C49.1646 32.097 49.4802 33.4901 49.6658 35.0504C49.7401 35.6819 49.7772 36.4063 49.7772 37.2236C49.7772 38.0409 49.7401 38.5424 49.6658 38.7282L49.5544 39.0625L33.2912 38.9511L32.4557 38.561C31.973 38.3381 31.5832 38.0966 31.2861 37.8366C30.9891 37.5765 30.692 37.2422 30.395 36.8335C29.6152 35.6076 29.2254 34.3074 29.2254 32.9329C29.2254 32.4871 29.2625 32.097 29.3368 31.7627C29.4482 31.4283 29.5967 31.0568 29.7823 30.6482C30.0051 30.2024 30.0979 29.9238 30.0608 29.8123C30.0237 29.7009 29.8752 29.8123 29.6152 30.1467C29.3072 30.5649 29.0709 30.9963 28.9062 31.4406V36.479C28.9233 36.6089 28.9233 36.7474 28.9062 36.8944V38.8953Z" fill="#232323"/>
</svg>
