<svg width="84" height="100" viewBox="0 0 84 100" fill="none" xmlns="http://www.w3.org/2000/svg">
<path d="M70.8333 35.1V29.1667C70.8333 21.4312 67.7604 14.0125 62.2906 8.54272C56.8208 3.07291 49.4022 0 41.6667 0C33.9312 0 26.5125 3.07291 21.0427 8.54272C15.5729 14.0125 12.5 21.4312 12.5 29.1667V35.1C8.789 36.7196 5.63039 39.3855 3.41041 42.7717C1.19044 46.1579 0.00532656 50.1176 0 54.1667V79.1667C0.00661607 84.69 2.20368 89.9852 6.10925 93.8907C10.0148 97.7963 15.31 99.9934 20.8333 100H62.5C68.0233 99.9934 73.3185 97.7963 77.2241 93.8907C81.1297 89.9852 83.3267 84.69 83.3333 79.1667V54.1667C83.328 50.1176 82.1429 46.1579 79.9229 42.7717C77.703 39.3855 74.5443 36.7196 70.8333 35.1ZM20.8333 29.1667C20.8333 23.6413 23.0283 18.3423 26.9353 14.4353C30.8423 10.5283 36.1413 8.33333 41.6667 8.33333C47.192 8.33333 52.4911 10.5283 56.3981 14.4353C60.3051 18.3423 62.5 23.6413 62.5 29.1667V33.3333H20.8333V29.1667ZM75 79.1667C75 82.4819 73.683 85.6613 71.3388 88.0055C68.9946 90.3497 65.8152 91.6667 62.5 91.6667H20.8333C17.5181 91.6667 14.3387 90.3497 11.9945 88.0055C9.6503 85.6613 8.33333 82.4819 8.33333 79.1667V54.1667C8.33333 50.8515 9.6503 47.672 11.9945 45.3278C14.3387 42.9836 17.5181 41.6667 20.8333 41.6667H62.5C65.8152 41.6667 68.9946 42.9836 71.3388 45.3278C73.683 47.672 75 50.8515 75 54.1667V79.1667Z" fill="#26715D"/>
<path d="M41.6667 58.3334C40.5616 58.3334 39.5018 58.7724 38.7204 59.5538C37.939 60.3352 37.5 61.395 37.5 62.5V70.8334C37.5 71.9384 37.939 72.9983 38.7204 73.7797C39.5018 74.5611 40.5616 75 41.6667 75C42.7717 75 43.8315 74.5611 44.6129 73.7797C45.3943 72.9983 45.8333 71.9384 45.8333 70.8334V62.5C45.8333 61.395 45.3943 60.3352 44.6129 59.5538C43.8315 58.7724 42.7717 58.3334 41.6667 58.3334Z" fill="#26715D"/>
</svg>
