<svg width="660" height="669" viewBox="0 0 660 669" fill="none" xmlns="http://www.w3.org/2000/svg">
<path d="M474.081 3L379.877 23.1627L240.721 122.267L231.757 245.975L262.801 322.999L385.012 298.728L474.081 229.451L491.026 142.67L458.676 100.05L474.081 3Z" fill="#A2E895"/>
<path d="M379.878 23.1627L159.589 8.78489L81.7943 81.9578L4 155.131L75.8892 231.641L95.6814 350.727M379.878 23.1627L474.081 3M379.878 23.1627L240.721 122.267L231.757 245.975M474.081 3L517.214 43.566L644.047 175.534L641.994 321.932M474.081 3L458.676 100.05L491.026 142.67L474.081 229.451L385.012 298.728M641.994 321.932L600.914 448.902L655.858 578.302L506.665 666M641.994 321.932L543.403 255.691L511.8 342.876M506.665 666L268.404 626.922L319.24 524.223L289.223 420.453M506.665 666L421.425 558.166L506.665 542.761L511.8 342.876M289.223 420.453L194.506 421.076L95.6814 350.727M289.223 420.453H402.471M95.6814 350.727L231.757 245.975M231.757 245.975L262.801 322.999L385.012 298.728M402.471 420.453L385.012 298.728M402.471 420.453L511.8 342.876" stroke="#232323" stroke-width="5"/>
</svg>
