<svg width="24" height="18" viewBox="0 0 24 18" fill="none" xmlns="http://www.w3.org/2000/svg">
<path fill-rule="evenodd" clip-rule="evenodd" d="M14.12 17.923L13.889 17.9486C13.8206 17.9486 13.6666 17.9572 13.427 17.9743H12.7272H12.6058H12.0342H11.9128H11.2129C10.9734 17.9572 10.8194 17.9486 10.751 17.9486L10.52 17.923V17.001C10.5121 16.9332 10.5121 16.8694 10.52 16.8095V14.4879C10.4441 14.2831 10.3352 14.0843 10.1933 13.8916C10.0735 13.7375 10.0051 13.6862 9.98796 13.7375C9.97086 13.7889 10.0136 13.9173 10.1163 14.1227C10.2018 14.311 10.2703 14.4822 10.3216 14.6362C10.3558 14.7903 10.3729 14.97 10.3729 15.1755C10.3729 15.8088 10.1933 16.408 9.83398 16.9729C9.6971 17.1612 9.56022 17.3153 9.42334 17.4351C9.28646 17.5549 9.10681 17.6662 8.88438 17.7689L8.49941 17.9486L1.00531 18L0.953976 17.8459C0.919754 17.7603 0.902645 17.5292 0.902645 17.1526C0.902645 16.776 0.919754 16.4422 0.953976 16.1512C1.03952 15.4322 1.18496 14.7903 1.39027 14.2254C1.59559 13.6605 1.88646 13.1812 2.26288 12.7874C2.62218 12.3766 3.08415 12.0685 3.64877 11.8631C4.2134 11.6405 4.88924 11.5292 5.67629 11.5292C6.46334 11.5292 7.25895 11.6576 8.06311 11.9144C8.86727 12.1712 9.56878 12.5563 10.1676 13.0699C10.2361 13.1041 10.2874 13.1384 10.3216 13.1726L10.3986 13.1983C10.4157 13.1812 10.3644 13.0699 10.2446 12.8645C10.1248 12.6419 10.0051 12.4536 9.8853 12.2996C9.61155 11.9058 9.27791 11.5892 8.88438 11.3495C8.47374 11.0927 8.02034 10.9643 7.52415 10.9643C7.16484 10.9643 6.77987 11.0243 6.36924 11.1441C6.09548 11.2297 5.89016 11.281 5.75328 11.2981C5.6164 11.2981 5.47097 11.281 5.31698 11.2468C5.16299 11.2126 5.03467 11.1612 4.93201 11.0927C4.81224 11.0071 4.69247 10.8959 4.5727 10.7589C4.19629 10.331 4.03374 9.80884 4.08508 9.19258C4.11929 8.78174 4.22195 8.42225 4.39305 8.11412C4.56415 7.78887 4.80369 7.5321 5.11166 7.34379C5.33409 7.20685 5.53085 7.12982 5.70195 7.1127C5.87305 7.07846 6.16392 7.06134 6.57455 7.06134C7.22473 7.06134 7.82357 7.18973 8.37109 7.4465C8.9186 7.68616 9.39767 8.07989 9.80831 8.62768C9.84253 8.69615 9.90242 8.79886 9.98796 8.93581C10.0735 9.05564 10.1505 9.17546 10.2189 9.29529C10.3482 9.54392 10.4485 9.71166 10.52 9.79852V8.98716C10.5371 7.75464 10.5457 6.6077 10.5457 5.54636V4.68237C10.5141 4.51638 10.4736 4.3593 10.4243 4.21113C10.3387 3.98859 10.2275 3.79173 10.0906 3.62054C9.93663 3.44936 9.73987 3.33809 9.50034 3.28673C9.29502 3.23538 9.05548 3.26962 8.78172 3.38944C8.49086 3.50927 8.09733 3.74037 7.60114 4.08274C7.31028 4.27104 7.03652 4.44223 6.77987 4.59629C6.52322 4.73324 6.26658 4.85307 6.00993 4.95578C5.75328 5.05849 5.48808 5.13552 5.21432 5.18688C4.92345 5.23823 4.60692 5.26391 4.26473 5.26391C3.76854 5.26391 3.33224 5.17832 2.95583 5.00713C2.5623 4.83595 2.22866 4.60485 1.9549 4.31384C1.68114 4.00571 1.45872 3.65478 1.28762 3.26106C1.11652 2.85021 0.979641 2.41369 0.87698 1.9515C0.859871 1.84879 0.842762 1.71184 0.825653 1.54066C0.80854 1.35235 0.799988 1.16405 0.799988 0.975749C0.799988 0.787446 0.80854 0.616262 0.825653 0.462197C0.825653 0.291013 0.834206 0.179743 0.851318 0.128388L0.902645 0H7.47282C8.37964 0 9.23513 0.00855923 10.0393 0.0256772H12.1181C12.187 0.0256772 12.2543 0.0257902 12.32 0.0260167C12.3857 0.0257902 12.453 0.0256772 12.5218 0.0256772H14.6007C15.4049 0.00855923 16.2603 0 17.1672 0H23.7373L23.7887 0.128388C23.8058 0.179743 23.8143 0.291013 23.8143 0.462197C23.8314 0.616262 23.84 0.787446 23.84 0.975749C23.84 1.16405 23.8314 1.35235 23.8143 1.54066C23.7972 1.71184 23.7801 1.84879 23.763 1.9515C23.6603 2.41369 23.5235 2.85021 23.3524 3.26106C23.1813 3.65478 22.9588 4.00571 22.6851 4.31384C22.4113 4.60485 22.0777 4.83595 21.6842 5.00713C21.3077 5.17832 20.8714 5.26391 20.3753 5.26391C20.0331 5.26391 19.7165 5.23823 19.4257 5.18688C19.1519 5.13552 18.8867 5.05849 18.6301 4.95578C18.3734 4.85307 18.1168 4.73324 17.8601 4.59629C17.6035 4.44223 17.3297 4.27104 17.0388 4.08274C16.5427 3.74037 16.1491 3.50927 15.8583 3.38944C15.5845 3.26962 15.345 3.23538 15.1396 3.28673C14.9001 3.33809 14.7033 3.44936 14.5494 3.62054C14.4125 3.79173 14.3013 3.98859 14.2157 4.21113C14.1664 4.3593 14.1259 4.51638 14.0943 4.68237V5.54636C14.0943 6.6077 14.1029 7.75464 14.12 8.98716V9.79852C14.1915 9.71166 14.2918 9.54392 14.421 9.29529C14.4895 9.17546 14.5665 9.05564 14.652 8.93581C14.7376 8.79886 14.7975 8.69615 14.8317 8.62768C15.2423 8.07989 15.7214 7.68616 16.2689 7.4465C16.8164 7.18973 17.4153 7.06134 18.0654 7.06134C18.4761 7.06134 18.7669 7.07846 18.938 7.1127C19.1091 7.12982 19.3059 7.20685 19.5283 7.34379C19.8363 7.5321 20.0758 7.78887 20.2469 8.11412C20.418 8.42225 20.5207 8.78174 20.5549 9.19258C20.6062 9.80884 20.4437 10.331 20.0673 10.7589C19.9475 10.8959 19.8277 11.0071 19.708 11.0927C19.6053 11.1612 19.477 11.2126 19.323 11.2468C19.169 11.281 19.0236 11.2981 18.8867 11.2981C18.7498 11.281 18.5445 11.2297 18.2707 11.1441C17.8601 11.0243 17.4751 10.9643 17.1158 10.9643C16.6196 10.9643 16.1662 11.0927 15.7556 11.3495C15.3621 11.5892 15.0284 11.9058 14.7547 12.2996C14.6349 12.4536 14.5151 12.6419 14.3954 12.8645C14.2756 13.0699 14.2243 13.1812 14.2414 13.1983L14.3184 13.1726C14.3526 13.1384 14.4039 13.1041 14.4724 13.0699C15.0712 12.5563 15.7727 12.1712 16.5769 11.9144C17.381 11.6576 18.1766 11.5292 18.9637 11.5292C19.7507 11.5292 20.4266 11.6405 20.9912 11.8631C21.5558 12.0685 22.0178 12.3766 22.3771 12.7874C22.7535 13.1812 23.0444 13.6605 23.2497 14.2254C23.455 14.7903 23.6005 15.4322 23.686 16.1512C23.7202 16.4422 23.7373 16.776 23.7373 17.1526C23.7373 17.5292 23.7202 17.7603 23.686 17.8459L23.6347 18L16.1406 17.9486L15.7556 17.7689C15.5332 17.6662 15.3535 17.5549 15.2166 17.4351C15.0798 17.3153 14.9429 17.1612 14.806 16.9729C14.4467 16.408 14.267 15.8088 14.267 15.1755C14.267 14.97 14.2842 14.7903 14.3184 14.6362C14.3697 14.4822 14.4381 14.311 14.5237 14.1227C14.6264 13.9173 14.6691 13.7889 14.652 13.7375C14.6349 13.6862 14.5665 13.7375 14.4467 13.8916C14.3047 14.0843 14.1958 14.2831 14.12 14.4879V16.8095C14.1279 16.8694 14.1279 16.9332 14.12 17.001V17.923Z" fill="#26715D"/>
</svg>
